<svg width="212" height="84" viewBox="0 0 212 84" fill="none" xmlns="http://www.w3.org/2000/svg">
<path d="M19.8984 20.2344H9.49219L7.92188 29.2812H20.25L19.2422 35H0.210938L6.11719 0.875H25.125L24.1172 6.61719H11.8594L10.4531 14.6797H20.8828L19.8984 20.2344ZM35.2031 28.0391C35.3594 26.9453 34.5078 25.9688 32.6484 25.1094C30.7891 24.25 29.3906 23.4453 28.4531 22.6953C27.5312 21.9297 26.8516 21.0859 26.4141 20.1641C25.9922 19.2422 25.8047 18.1953 25.8516 17.0234C25.9609 14.7266 26.8984 12.8359 28.6641 11.3516C30.4453 9.85156 32.6172 9.11719 35.1797 9.14844C37.7109 9.21094 39.7031 9.96875 41.1562 11.4219C42.625 12.8594 43.3438 14.7656 43.3125 17.1406H36.8438C36.8906 16.0312 36.7422 15.25 36.3984 14.7969C36.0703 14.3281 35.5469 14.0938 34.8281 14.0938C34.0781 14.0938 33.4375 14.3516 32.9062 14.8672C32.3906 15.3672 32.0703 15.9766 31.9453 16.6953C31.7578 17.7109 32.5469 18.6172 34.3125 19.4141C36.0938 20.2109 37.375 20.875 38.1562 21.4062C40.4844 22.9531 41.5703 25.0703 41.4141 27.7578C41.3203 29.3359 40.8281 30.7188 39.9375 31.9062C39.0625 33.0781 37.8828 33.9766 36.3984 34.6016C34.9297 35.2266 33.3359 35.5156 31.6172 35.4688C29.1484 35.4062 27.1328 34.6016 25.5703 33.0547C24.0078 31.5078 23.2422 29.5312 23.2734 27.125L29.4375 27.1484C29.3906 28.3672 29.5859 29.2422 30.0234 29.7734C30.4609 30.3047 31.1406 30.5703 32.0625 30.5703C32.875 30.5703 33.5625 30.3594 34.125 29.9375C34.7031 29.5 35.0625 28.8672 35.2031 28.0391ZM55.5703 9.17188C57.7578 9.23438 59.3828 10.25 60.4453 12.2188L61.4531 9.64062H67.1953L61.1016 44.75H54.5859L56.8828 33.0078C55.4141 34.6953 53.7734 35.5234 51.9609 35.4922C49.8047 35.4609 48.1797 34.6328 47.0859 33.0078C45.9922 31.3672 45.4688 28.9922 45.5156 25.8828L45.5859 24.3594C45.9453 19.25 46.9375 15.4219 48.5625 12.875C50.2031 10.3281 52.5391 9.09375 55.5703 9.17188ZM51.9844 25.8828C51.9375 27.3047 52.1016 28.3359 52.4766 28.9766C52.8672 29.6172 53.4688 29.9531 54.2812 29.9844C55.4219 30.0156 56.4609 29.4922 57.3984 28.4141L59.5312 16.2734C59.0312 15.2422 58.2031 14.7031 57.0469 14.6562C54.6719 14.5312 53.1875 16.2812 52.5938 19.9062L52.3594 21.5703L51.9844 25.8828ZM80.5312 32.6797C78.9375 34.5859 77.0781 35.5234 74.9531 35.4922C73.2969 35.4766 71.9688 34.9219 70.9688 33.8281C69.9688 32.7188 69.3906 31.2109 69.2344 29.3047C69.1406 28.1953 69.1484 27.1094 69.2578 26.0469L72 9.64062H78.4688L75.7266 26.1406L75.6562 27.2891C75.5938 28.0703 75.7031 28.7031 75.9844 29.1875C76.2812 29.6719 76.7188 29.9219 77.2969 29.9375C78.5781 29.9844 79.75 29.3359 80.8125 27.9922L84 9.64062H90.5391L86.1328 35H80.1094L80.5312 32.6797ZM101.367 35.4688C99.3203 35.4531 97.5781 34.9531 96.1406 33.9688C94.7188 32.9844 93.6875 31.6094 93.0469 29.8438C92.4219 28.0625 92.2344 26.0391 92.4844 23.7734L92.6953 22.0391C93.2109 17.8359 94.4844 14.625 96.5156 12.4062C98.5625 10.1719 101.164 9.09375 104.32 9.17188C106.633 9.23438 108.445 9.96094 109.758 11.3516C111.086 12.7266 111.859 14.6562 112.078 17.1406C112.203 18.625 112.172 20.0781 111.984 21.5L111.539 24.5469H98.8828C98.8047 25.2188 98.7812 25.8672 98.8125 26.4922C98.9219 28.7422 100.023 29.8906 102.117 29.9375C104.07 30 105.961 29.2578 107.789 27.7109L109.969 31.7422C109.109 32.9141 107.906 33.8359 106.359 34.5078C104.828 35.1797 103.164 35.5 101.367 35.4688ZM103.688 14.6328C101.828 14.5547 100.531 15.7422 99.7969 18.1953L99.3281 19.9062L105.773 19.9297C105.93 19.0234 106.016 18.2891 106.031 17.7266C106.094 15.7422 105.312 14.7109 103.688 14.6328ZM123.398 30.0078C125.18 30.0547 126.281 28.7969 126.703 26.2344L132.773 26.2109C132.508 29.0234 131.469 31.2891 129.656 33.0078C127.844 34.7266 125.633 35.5547 123.023 35.4922C120.664 35.4297 118.781 34.7266 117.375 33.3828C115.984 32.0234 115.156 30.1328 114.891 27.7109C114.656 25.7422 114.766 23.3672 115.219 20.5859C115.688 17.8047 116.547 15.4844 117.797 13.625C119.844 10.5625 122.758 9.07812 126.539 9.17188C129.102 9.25 131.055 10.1797 132.398 11.9609C133.742 13.7266 134.344 16.1172 134.203 19.1328L128.109 19.1094L128.133 17.6562C128.07 15.7188 127.305 14.7109 125.836 14.6328C123.539 14.5078 122.172 16.2891 121.734 19.9766L121.289 24.2188C121.102 25.4844 121.039 26.5391 121.102 27.3828C121.211 29.0859 121.977 29.9609 123.398 30.0078ZM145.57 35.4688C143.523 35.4531 141.781 34.9531 140.344 33.9688C138.922 32.9844 137.891 31.6094 137.25 29.8438C136.625 28.0625 136.438 26.0391 136.688 23.7734L136.898 22.0391C137.414 17.8359 138.688 14.625 140.719 12.4062C142.766 10.1719 145.367 9.09375 148.523 9.17188C150.836 9.23438 152.648 9.96094 153.961 11.3516C155.289 12.7266 156.062 14.6562 156.281 17.1406C156.406 18.625 156.375 20.0781 156.188 21.5L155.742 24.5469H143.086C143.008 25.2188 142.984 25.8672 143.016 26.4922C143.125 28.7422 144.227 29.8906 146.32 29.9375C148.273 30 150.164 29.2578 151.992 27.7109L154.172 31.7422C153.312 32.9141 152.109 33.8359 150.562 34.5078C149.031 35.1797 147.367 35.5 145.57 35.4688ZM147.891 14.6328C146.031 14.5547 144.734 15.7422 144 18.1953L143.531 19.9062L149.977 19.9297C150.133 19.0234 150.219 18.2891 150.234 17.7266C150.297 15.7422 149.516 14.7109 147.891 14.6328ZM170.438 32.6797C168.844 34.5859 166.984 35.5234 164.859 35.4922C163.203 35.4766 161.875 34.9219 160.875 33.8281C159.875 32.7188 159.297 31.2109 159.141 29.3047C159.047 28.1953 159.055 27.1094 159.164 26.0469L161.906 9.64062H168.375L165.633 26.1406L165.562 27.2891C165.5 28.0703 165.609 28.7031 165.891 29.1875C166.188 29.6719 166.625 29.9219 167.203 29.9375C168.484 29.9844 169.656 29.3359 170.719 27.9922L173.906 9.64062H180.445L176.039 35H170.016L170.438 32.6797Z" fill="#FFC042"/>
<path d="M12.0938 76.0391C12.25 74.9453 11.3984 73.9688 9.53906 73.1094C7.67969 72.25 6.28125 71.4453 5.34375 70.6953C4.42188 69.9297 3.74219 69.0859 3.30469 68.1641C2.88281 67.2422 2.69531 66.1953 2.74219 65.0234C2.85156 62.7266 3.78906 60.8359 5.55469 59.3516C7.33594 57.8516 9.50781 57.1172 12.0703 57.1484C14.6016 57.2109 16.5938 57.9688 18.0469 59.4219C19.5156 60.8594 20.2344 62.7656 20.2031 65.1406H13.7344C13.7812 64.0312 13.6328 63.25 13.2891 62.7969C12.9609 62.3281 12.4375 62.0938 11.7188 62.0938C10.9688 62.0938 10.3281 62.3516 9.79688 62.8672C9.28125 63.3672 8.96094 63.9766 8.83594 64.6953C8.64844 65.7109 9.4375 66.6172 11.2031 67.4141C12.9844 68.2109 14.2656 68.875 15.0469 69.4062C17.375 70.9531 18.4609 73.0703 18.3047 75.7578C18.2109 77.3359 17.7188 78.7188 16.8281 79.9062C15.9531 81.0781 14.7734 81.9766 13.2891 82.6016C11.8203 83.2266 10.2266 83.5156 8.50781 83.4688C6.03906 83.4062 4.02344 82.6016 2.46094 81.0547C0.898438 79.5078 0.132812 77.5312 0.164062 75.125L6.32812 75.1484C6.28125 76.3672 6.47656 77.2422 6.91406 77.7734C7.35156 78.3047 8.03125 78.5703 8.95312 78.5703C9.76562 78.5703 10.4531 78.3594 11.0156 77.9375C11.5938 77.5 11.9531 76.8672 12.0938 76.0391ZM34.0312 80.6797C32.4375 82.5859 30.5781 83.5234 28.4531 83.4922C26.7969 83.4766 25.4688 82.9219 24.4688 81.8281C23.4688 80.7188 22.8906 79.2109 22.7344 77.3047C22.6406 76.1953 22.6484 75.1094 22.7578 74.0469L25.5 57.6406H31.9688L29.2266 74.1406L29.1562 75.2891C29.0938 76.0703 29.2031 76.7031 29.4844 77.1875C29.7812 77.6719 30.2188 77.9219 30.7969 77.9375C32.0781 77.9844 33.25 77.3359 34.3125 75.9922L37.5 57.6406H44.0391L39.6328 83H33.6094L34.0312 80.6797ZM56.4844 83C56.3594 82.4688 56.2969 81.8125 56.2969 81.0312C54.8594 82.6719 53.2188 83.4922 51.375 83.4922C49.4219 83.4609 47.8516 82.7422 46.6641 81.3359C45.4922 79.9297 44.9531 78.1797 45.0469 76.0859C45.1875 73.3984 46.2344 71.2969 48.1875 69.7812C50.1406 68.25 52.7656 67.4844 56.0625 67.4844H57.9609L58.2656 65.4219L58.3359 64.3672C58.3359 63.0078 57.7891 62.3281 56.6953 62.3281C55.1797 62.2812 54.2578 63.25 53.9297 65.2344L47.4844 65.2812C47.625 62.875 48.625 60.9141 50.4844 59.3984C52.3438 57.8672 54.6094 57.1172 57.2812 57.1484C59.7969 57.2109 61.7188 58.0078 63.0469 59.5391C64.3906 61.0547 64.9375 63.0625 64.6875 65.5625L62.625 78.4531L62.5312 79.6953C62.4688 80.7891 62.5781 81.75 62.8594 82.5781L62.8359 83H56.4844ZM53.1562 78.3125C54.2969 78.3438 55.3594 77.8438 56.3438 76.8125L57.4922 71.4453H56.0859C54.8359 71.5078 53.8281 71.9297 53.0625 72.7109C52.2969 73.4922 51.8359 74.4766 51.6797 75.6641L51.6562 76.5547C51.6562 77.0547 51.7812 77.4688 52.0312 77.7969C52.2969 78.125 52.6719 78.2969 53.1562 78.3125ZM89.7656 76.0391C89.9219 74.9453 89.0703 73.9688 87.2109 73.1094C85.3516 72.25 83.9531 71.4453 83.0156 70.6953C82.0938 69.9297 81.4141 69.0859 80.9766 68.1641C80.5547 67.2422 80.3672 66.1953 80.4141 65.0234C80.5234 62.7266 81.4609 60.8359 83.2266 59.3516C85.0078 57.8516 87.1797 57.1172 89.7422 57.1484C92.2734 57.2109 94.2656 57.9688 95.7188 59.4219C97.1875 60.8594 97.9062 62.7656 97.875 65.1406H91.4062C91.4531 64.0312 91.3047 63.25 90.9609 62.7969C90.6328 62.3281 90.1094 62.0938 89.3906 62.0938C88.6406 62.0938 88 62.3516 87.4688 62.8672C86.9531 63.3672 86.6328 63.9766 86.5078 64.6953C86.3203 65.7109 87.1094 66.6172 88.875 67.4141C90.6562 68.2109 91.9375 68.875 92.7188 69.4062C95.0469 70.9531 96.1328 73.0703 95.9766 75.7578C95.8828 77.3359 95.3906 78.7188 94.5 79.9062C93.625 81.0781 92.4453 81.9766 90.9609 82.6016C89.4922 83.2266 87.8984 83.5156 86.1797 83.4688C83.7109 83.4062 81.6953 82.6016 80.1328 81.0547C78.5703 79.5078 77.8047 77.5312 77.8359 75.125L84 75.1484C83.9531 76.3672 84.1484 77.2422 84.5859 77.7734C85.0234 78.3047 85.7031 78.5703 86.625 78.5703C87.4375 78.5703 88.125 78.3594 88.6875 77.9375C89.2656 77.5 89.625 76.8672 89.7656 76.0391ZM109.383 83.4688C107.336 83.4531 105.594 82.9531 104.156 81.9688C102.734 80.9844 101.703 79.6094 101.062 77.8438C100.438 76.0625 100.25 74.0391 100.5 71.7734L100.711 70.0391C101.227 65.8359 102.5 62.625 104.531 60.4062C106.578 58.1719 109.18 57.0938 112.336 57.1719C114.648 57.2344 116.461 57.9609 117.773 59.3516C119.102 60.7266 119.875 62.6562 120.094 65.1406C120.219 66.625 120.188 68.0781 120 69.5L119.555 72.5469H106.898C106.82 73.2188 106.797 73.8672 106.828 74.4922C106.938 76.7422 108.039 77.8906 110.133 77.9375C112.086 78 113.977 77.2578 115.805 75.7109L117.984 79.7422C117.125 80.9141 115.922 81.8359 114.375 82.5078C112.844 83.1797 111.18 83.5 109.383 83.4688ZM111.703 62.6328C109.844 62.5547 108.547 63.7422 107.812 66.1953L107.344 67.9062L113.789 67.9297C113.945 67.0234 114.031 66.2891 114.047 65.7266C114.109 63.7422 113.328 62.7109 111.703 62.6328ZM131.766 57.6172L131.297 60.1719C133.078 58.0938 135.055 57.0859 137.227 57.1484C139.008 57.1797 140.359 57.8516 141.281 59.1641C142.219 60.4609 142.68 62.3125 142.664 64.7188L142.523 66.875L139.828 83H133.336L136.008 66.8281L136.125 65.4453C136.188 63.6172 135.5 62.7031 134.062 62.7031C133.391 62.7031 132.82 62.8906 132.352 63.2656C131.883 63.625 131.445 64.0547 131.039 64.5547L127.828 83H121.312L125.719 57.6406L131.766 57.6172ZM154.711 59.8906C156.32 58.0312 158.094 57.1172 160.031 57.1484C161.891 57.1797 163.312 57.8672 164.297 59.2109C165.281 60.5547 165.773 62.4219 165.773 64.8125L165.656 67.0391L162.984 83H156.492L159.141 66.9688L159.258 65.5859C159.32 63.6797 158.641 62.7266 157.219 62.7266C156.188 62.6953 155.188 63.2422 154.219 64.3672L150.961 83H144.469L150.727 47H157.195L154.711 59.8906ZM179.859 83C179.734 82.4688 179.672 81.8125 179.672 81.0312C178.234 82.6719 176.594 83.4922 174.75 83.4922C172.797 83.4609 171.227 82.7422 170.039 81.3359C168.867 79.9297 168.328 78.1797 168.422 76.0859C168.562 73.3984 169.609 71.2969 171.562 69.7812C173.516 68.25 176.141 67.4844 179.438 67.4844H181.336L181.641 65.4219L181.711 64.3672C181.711 63.0078 181.164 62.3281 180.07 62.3281C178.555 62.2812 177.633 63.25 177.305 65.2344L170.859 65.2812C171 62.875 172 60.9141 173.859 59.3984C175.719 57.8672 177.984 57.1172 180.656 57.1484C183.172 57.2109 185.094 58.0078 186.422 59.5391C187.766 61.0547 188.312 63.0625 188.062 65.5625L186 78.4531L185.906 79.6953C185.844 80.7891 185.953 81.75 186.234 82.5781L186.211 83H179.859ZM176.531 78.3125C177.672 78.3438 178.734 77.8438 179.719 76.8125L180.867 71.4453H179.461C178.211 71.5078 177.203 71.9297 176.438 72.7109C175.672 73.4922 175.211 74.4766 175.055 75.6641L175.031 76.5547C175.031 77.0547 175.156 77.4688 175.406 77.7969C175.672 78.125 176.047 78.2969 176.531 78.3125ZM196.594 72.5234C196.719 70.6797 197.094 69.0391 197.719 67.6016C198.344 66.1484 199.352 64.75 200.742 63.4062C202.133 62.0469 203.094 60.8828 203.625 59.9141C204.156 58.9453 204.445 57.7969 204.492 56.4688C204.523 55.7031 204.391 55.0859 204.094 54.6172C203.797 54.1484 203.344 53.9062 202.734 53.8906C201.984 53.875 201.336 54.2266 200.789 54.9453C200.258 55.6641 199.891 56.6641 199.688 57.9453L193.242 57.9688C193.539 55 194.578 52.6484 196.359 50.9141C198.156 49.1641 200.469 48.3203 203.297 48.3828C205.906 48.4453 207.914 49.2969 209.32 50.9375C210.727 52.5781 211.32 54.7422 211.102 57.4297C210.93 59.8359 209.68 62.2109 207.352 64.5547L204.516 67.3203C203.312 68.6016 202.531 70.3281 202.172 72.5L196.594 72.5234ZM194.531 79.8125C194.531 78.7188 194.867 77.8281 195.539 77.1406C196.211 76.4375 197.047 76.0703 198.047 76.0391C199.016 76.0078 199.844 76.3281 200.531 77C201.219 77.6562 201.562 78.5078 201.562 79.5547C201.562 80.6328 201.234 81.5234 200.578 82.2266C199.922 82.9297 199.07 83.2969 198.023 83.3281C196.977 83.3281 196.133 82.9844 195.492 82.2969C194.852 81.5938 194.531 80.7656 194.531 79.8125Z" fill="#F7F5FA"/>
</svg>
